<svg id="Layer_1" data-name="Layer 1" xmlns="http://www.w3.org/2000/svg" viewBox="0 0 500 394"><defs><style>.cls-1{fill:#fff;}</style></defs><path class="cls-1" d="M442.86,268.43a28.6,28.6,0,0,1-28.57-28.57V211.29h28.57a57.16,57.16,0,0,0,3.29-114.22c-1.07-.06-2.22-.07-3.29-.07H414.29V68.43a57.15,57.15,0,0,0-114.29,0V97H142.86a143,143,0,0,0-28.57,2.86V68.43A57.15,57.15,0,0,0,0,68.43V239.86c0,78.77,64.09,142.85,142.86,142.85H314.29a57.12,57.12,0,0,0,47.44-25.33,141.61,141.61,0,0,0,78.15,25.28c1,0,2,0,3,0s2.22,0,3.32-.07a57.15,57.15,0,0,0-3.32-114.21ZM314.29,125.57a28.57,28.57,0,0,1,0,57.14H273.77a142.77,142.77,0,0,0-45.43-57.14Zm28.57,114.29a28.61,28.61,0,0,1-28.57,28.57H282.74a138.9,138.9,0,0,0,0-57.14h31.55A28.6,28.6,0,0,1,342.86,239.86Zm-314.29,0V68.43a28.57,28.57,0,1,1,57.14,0v50.19a14.29,14.29,0,0,0,19.08,13.46,113.15,113.15,0,0,1,38.07-6.51,114.5,114.5,0,0,1,107.77,76.19,0,0,0,0,0,0,0A114.3,114.3,0,1,1,28.57,239.86ZM314.29,354.14h-86A142.6,142.6,0,0,0,273.77,297h40.52a28.57,28.57,0,0,1,0,57.14Zm130.22,0c-.53,0-1.1,0-1.65,0s-1.12,0-1.66,0l-.58,0a112.14,112.14,0,0,1-69.35-25.38c.06-1.05.16-2.08.16-3.15A57,57,0,0,0,352,282.71,56.9,56.9,0,0,0,352,197a57,57,0,0,0-23.39-98.12V68.43a28.57,28.57,0,1,1,57.14,0v42.86A14.29,14.29,0,0,0,400,125.57h42.86c.54,0,1.11,0,1.63,0a28.58,28.58,0,0,1-1.63,57.12H400A14.29,14.29,0,0,0,385.71,197v42.86A57.21,57.21,0,0,0,442.86,297a28.58,28.58,0,0,1,1.65,57.12Z"/><path class="cls-1" d="M200,239.86A57.15,57.15,0,1,0,142.86,297,57.21,57.21,0,0,0,200,239.86Zm-85.71,0a28.57,28.57,0,1,1,28.57,28.57A28.59,28.59,0,0,1,114.29,239.86Z"/></svg>